<svg width="16" height="22" viewBox="0 0 16 22" fill="none" xmlns="http://www.w3.org/2000/svg">
<path d="M15.9569 7.72632C15.8437 3.82592 13.0086 0.672684 9.06976 0.0841298C4.90368 -0.538249 0.842406 2.36318 0.103436 6.44999C-0.155127 7.88041 0.0942574 9.22213 0.593789 10.5511C1.50947 12.9835 2.74338 15.2648 4.03926 17.5145C4.71091 18.6796 5.40015 19.8364 6.11924 20.9737C6.97831 22.3334 8.94354 22.3462 9.79649 20.9872C11.5988 18.1166 13.3123 15.1964 14.6977 12.1033C15.2156 10.9457 15.6914 9.77009 15.8888 8.5088C15.9293 8.25098 15.9347 7.98714 15.9569 7.72632ZM7.94677 4.16943C9.7177 4.16342 11.162 5.56377 11.1696 7.29411C11.1773 9.04173 9.73606 10.4699 7.96437 10.4714C6.20415 10.4721 4.76063 9.05676 4.75604 7.32568C4.75145 5.58858 6.17967 4.17545 7.94677 4.16943Z" fill="#100C0C"/>
</svg>
