<svg width="44" height="44" viewBox="0 0 44 44" fill="none" xmlns="http://www.w3.org/2000/svg">
<path d="M22 0C34.1503 0 44 9.84974 44 22C44 34.1503 34.1503 44 22 44C9.84974 44 0 34.1503 0 22C0 9.84974 9.84974 0 22 0ZM12.2256 22.001C12.2256 23.2848 12.4785 24.5561 12.9697 25.7422C13.4611 26.9285 14.1819 28.0071 15.0898 28.915C15.9977 29.8229 17.0756 30.5429 18.2617 31.0342C19.1389 31.3975 20.0629 31.6289 21.0039 31.7256V35.4453H23.0039V31.7256C23.9446 31.6288 24.8682 31.3974 25.7451 31.0342C26.9313 30.5429 28.0091 29.8228 28.917 28.915C29.8249 28.0071 30.5457 26.9285 31.0371 25.7422C31.5284 24.5561 31.7812 23.2848 31.7812 22.001H29.6582C29.6582 23.0062 29.4599 24.002 29.0752 24.9307C28.6905 25.8592 28.1267 26.7034 27.416 27.4141C26.7053 28.1247 25.8612 28.6886 24.9326 29.0732C24.0041 29.4578 23.0089 29.6552 22.0039 29.6553C20.9987 29.6553 20.0029 29.4579 19.0742 29.0732C18.1456 28.6886 17.3016 28.1247 16.5908 27.4141C15.8801 26.7034 15.3163 25.8592 14.9316 24.9307C14.547 24.002 14.3486 23.0062 14.3486 22.001H12.2256ZM22.0039 8.55664C19.3038 8.55664 17.1143 10.7453 17.1143 13.4453V22.001C17.1143 24.701 19.3039 26.8896 22.0039 26.8896C24.7037 26.8894 26.8925 24.7008 26.8926 22.001V13.4453C26.8926 10.7454 24.7038 8.55688 22.0039 8.55664Z" fill="white"/>
</svg>
