<svg width="21" height="19" viewBox="0 0 21 19" fill="none" xmlns="http://www.w3.org/2000/svg">
<path d="M18.5274 2.65435C16.3401 0.37334 12.7817 0.37334 10.595 2.65435L10.0871 3.18384L9.57945 2.65435C7.3927 0.373031 3.83406 0.373031 1.64731 2.65435C-0.495041 4.88904 -0.508952 8.43127 1.61505 10.8941C3.55228 13.1396 9.2657 17.9909 9.50812 18.1962C9.67268 18.3358 9.8707 18.4037 10.0675 18.4037C10.074 18.4037 10.0806 18.4037 10.0868 18.4034C10.2904 18.4133 10.4955 18.3404 10.6654 18.1962C10.9078 17.9909 16.6219 13.1396 18.5597 10.8938C20.6834 8.43127 20.6695 4.88904 18.5274 2.65435ZM17.2396 9.65482C15.7292 11.4051 11.5774 15.0149 10.0868 16.2959C8.59618 15.0152 4.44527 11.4057 2.93515 9.65513C1.45344 7.93728 1.43953 5.49078 2.90288 3.96435C3.65025 3.18508 4.63174 2.79513 5.61323 2.79513C6.59472 2.79513 7.57621 3.18477 8.32358 3.96435L9.44004 5.12893C9.57294 5.26756 9.74047 5.3503 9.91628 5.37933C10.2016 5.44324 10.5112 5.36018 10.7332 5.12924L11.8503 3.96435C13.3453 2.4055 15.7771 2.40581 17.2712 3.96435C18.7346 5.49078 18.7207 7.93727 17.2396 9.65482Z" fill="white"/>
</svg>
