<svg width="21" height="22" viewBox="0 0 21 22" fill="none" xmlns="http://www.w3.org/2000/svg">
<path d="M8.70162 1.67287C9.88294 0.600437 11.6276 0.567683 12.8452 1.59474L19.8452 6.43361C20.4406 6.95552 20.7846 7.72755 20.7846 8.54103V18.1895C20.7846 19.1965 20.4025 20.1629 19.7221 20.874C19.0417 21.5852 18.1187 21.9831 17.1577 21.9805H4.47311C2.47003 21.9805 0.846153 20.2787 0.846153 18.1797V8.54103C0.864572 7.71445 1.23718 6.94014 1.8608 6.43361L8.70162 1.67287ZM6.38424 13.6729C6.38424 14.8969 6.87123 16.071 7.73678 16.9365C8.60232 17.802 9.77641 18.2881 11.0005 18.2881C12.2243 18.288 13.3977 17.8019 14.2631 16.9365C15.1287 16.071 15.6157 14.8969 15.6157 13.6729H14.0249C14.0249 14.4749 13.7061 15.2443 13.1391 15.8115C12.572 16.3787 11.8025 16.6981 11.0005 16.6983C10.1982 16.6983 9.42805 16.3788 8.8608 15.8115C8.29381 15.2443 7.97506 14.4749 7.97506 13.6729H6.38424Z" fill="white"/>
</svg>
