<svg width="22" height="17" viewBox="0 0 22 17" fill="none" xmlns="http://www.w3.org/2000/svg">
<path d="M20.8083 16.2964C20.6811 16.2964 20.554 16.2964 20.4263 16.2964C19.9821 16.1037 19.8038 15.7633 19.8511 15.2858C19.8678 15.1165 19.854 14.9439 19.854 14.7785C13.7266 14.7785 7.63787 14.7785 1.52767 14.7785C1.52767 14.9631 1.51476 15.1376 1.53006 15.3098C1.57261 15.7791 1.38757 16.1085 0.954853 16.296C0.827667 16.296 0.70048 16.296 0.572816 16.296C0.306968 16.1795 0.111886 15.993 0 15.7225C0 13.7626 0 11.8027 0 9.84275C0.010041 9.83124 0.0262979 9.82069 0.0296449 9.80727C0.37104 8.49553 1.16428 7.88281 2.52221 7.88281C7.99408 7.88281 13.466 7.88281 18.9378 7.88281C20.4177 7.88281 21.3807 8.85127 21.3812 10.3385C21.3816 11.9954 21.3706 13.6523 21.3883 15.3093C21.3926 15.7791 21.2411 16.1085 20.8083 16.2964Z" fill="#C8C7CF"/>
<path d="M19.0899 5.34271C18.3115 5.34271 17.567 5.34271 16.7986 5.34271C16.7986 5.08717 16.8015 4.84218 16.7982 4.59767C16.7852 3.73181 16.1302 3.06923 15.2695 3.06156C14.5064 3.05485 13.7428 3.05437 12.9792 3.06156C12.12 3.06971 11.4654 3.73565 11.4544 4.60103C11.4516 4.83979 11.4539 5.07807 11.4539 5.33552C10.9495 5.33552 10.4537 5.33552 9.92628 5.33552C9.92628 5.11211 9.92723 4.88437 9.92628 4.65664C9.92102 3.71503 9.27313 3.06348 8.33693 3.06012C7.61349 3.05772 6.88959 3.05724 6.16615 3.06012C5.2419 3.06348 4.58876 3.71551 4.58206 4.63746C4.58063 4.86711 4.58159 5.09628 4.58159 5.33984C3.81321 5.33984 3.06348 5.33984 2.2908 5.33984C2.2908 5.26073 2.2908 5.19121 2.2908 5.12169C2.2908 3.704 2.29032 2.28631 2.29128 0.868618C2.29128 0.298569 2.58916 0.000839013 3.15959 0.000359577C8.17723 -0.000119859 13.1949 -0.000119859 18.213 0.000359577C18.7944 0.000359577 19.0899 0.298569 19.0904 0.884919C19.0909 2.29446 19.0904 3.70448 19.0904 5.11402C19.0899 5.1845 19.0899 5.25498 19.0899 5.34271Z" fill="#C8C7CF"/>
</svg>
