<svg width="25" height="24" viewBox="0 0 25 24" fill="none" xmlns="http://www.w3.org/2000/svg">
<path d="M1.42308 20.4952C1.42308 21.0217 1.57813 21.4219 1.88822 21.6959C2.20553 21.9772 2.59496 22.1178 3.05649 22.1178C3.40265 22.1178 3.75241 22.0169 4.10577 21.8149L7.9351 19.7488V1.88946C7.79087 1.93273 7.63582 1.99042 7.46996 2.06254C7.30409 2.13465 7.1238 2.2248 6.92909 2.33297L2.56972 4.79932C2.18029 5.01566 1.89183 5.28249 1.70433 5.5998C1.51683 5.9171 1.42308 6.29571 1.42308 6.73561V20.4952ZM9.5577 19.3919L14.1118 21.9339C14.2849 22.0205 14.4435 22.0962 14.5877 22.1611C14.7392 22.2332 14.9051 22.2909 15.0853 22.3342V4.99403L10.6827 2.37624C10.4591 2.24643 10.2536 2.13826 10.0661 2.05172C9.87861 1.95797 9.70914 1.88946 9.5577 1.84619V19.3919ZM16.7188 22.2584C16.7837 22.2368 16.8486 22.2116 16.9135 22.1827C16.9856 22.1539 17.0577 22.1178 17.1298 22.0746L22.1382 19.2621C22.5565 19.0241 22.8594 18.75 23.0469 18.4399C23.2416 18.1226 23.3389 17.7404 23.3389 17.2933V3.69595C23.3389 3.13345 23.1731 2.71879 22.8414 2.45196C22.5096 2.18513 22.0877 2.05172 21.5757 2.05172C21.1791 2.05172 20.7825 2.1635 20.3858 2.38706L16.7188 4.42071V22.2584Z" fill="#929292"/>
</svg>
