<svg width="12" height="17" viewBox="0 0 12 17" fill="none" xmlns="http://www.w3.org/2000/svg">
<path d="M5.97096 0C9.27438 0 11.9419 2.66753 11.9419 5.97096C11.9419 7.12275 11.574 8.22256 11.0621 9.12636L7.17075 15.8611C6.92679 16.3011 6.43488 16.521 5.97096 16.521C5.507 16.521 5.03912 16.3011 4.77117 15.8611L0.879848 9.13036C0.363938 8.22648 1.90735e-06 7.14667 1.90735e-06 5.97487C1.90735e-06 2.67153 2.66754 0 5.97096 0ZM5.97096 7.73465C7.17075 7.73465 8.15058 6.75482 8.15058 5.55503C8.15058 4.35524 7.17075 3.37541 5.97096 3.37541C4.77117 3.37541 3.79134 4.35524 3.79134 5.55503C3.79134 6.75882 4.77117 7.73465 5.97096 7.73465Z" fill="#FAFBFE"/>
</svg>
