<svg width="22" height="24" viewBox="0 0 22 24" fill="none" xmlns="http://www.w3.org/2000/svg">
<path d="M12.1637 0.923096C13.0014 0.923096 13.7598 1.38833 14.1787 2.0751C14.3825 2.4074 14.5183 2.81725 14.4843 3.24925C14.4617 3.58156 14.5636 3.91387 14.7447 4.22402C15.322 5.16556 16.6012 5.52002 17.5974 4.98833C18.7181 4.34587 20.1331 4.73356 20.7783 5.83017L21.5368 7.13725C22.1934 8.23387 21.8311 9.64063 20.6991 10.272C19.7369 10.8369 19.3973 12.0886 19.9746 13.0412C20.1557 13.3403 20.3595 13.5951 20.6765 13.7502C21.0727 13.9606 21.3783 14.2929 21.5934 14.6252C22.0122 15.312 21.9783 16.1539 21.5707 16.896L20.7783 18.2253C20.3595 18.9342 19.5784 19.3773 18.7747 19.3773C18.3785 19.3773 17.937 19.2665 17.5747 19.0449C17.2804 18.8566 16.9408 18.7902 16.5786 18.7902C15.4579 18.7902 14.5183 19.7096 14.4843 20.8062C14.4843 22.08 13.4429 23.0769 12.1411 23.0769H10.6015C9.28839 23.0769 8.24693 22.08 8.24693 20.8062C8.22429 19.7096 7.28472 18.7902 6.16403 18.7902C5.79046 18.7902 5.45086 18.8566 5.16786 19.0449C4.80561 19.2665 4.3528 19.3773 3.96792 19.3773C3.15287 19.3773 2.37178 18.9342 1.95293 18.2253L1.17184 16.896C0.752999 16.176 0.730359 15.312 1.1492 14.6252C1.33033 14.2929 1.66993 13.9606 2.05482 13.7502C2.37178 13.5951 2.57554 13.3403 2.76798 13.0412C3.33399 12.0886 2.99439 10.8369 2.03218 10.272C0.911481 9.64063 0.549236 8.23387 1.19448 7.13725L1.95293 5.83017C2.6095 4.73356 4.0132 4.34587 5.14522 4.98833C6.13007 5.52002 7.40924 5.16556 7.98657 4.22402C8.16769 3.91387 8.26957 3.58156 8.24693 3.24925C8.22429 2.81725 8.34882 2.4074 8.5639 2.0751C8.98274 1.38833 9.74119 0.94525 10.5676 0.923096H12.1637ZM11.3826 8.87633C9.60535 8.87633 8.16769 10.272 8.16769 12.0111C8.16769 13.7502 9.60535 15.1348 11.3826 15.1348C13.1599 15.1348 14.5636 13.7502 14.5636 12.0111C14.5636 10.272 13.1599 8.87633 11.3826 8.87633Z" fill="#929292"/>
</svg>
