<svg width="16" height="21" viewBox="0 0 16 21" fill="none" xmlns="http://www.w3.org/2000/svg">
<path d="M2.93164 20.2051H13.0532C14.0181 20.2051 14.7479 19.9577 15.2427 19.4629C15.7375 18.9681 15.9849 18.2476 15.9849 17.3013V8.71045C15.9849 7.75798 15.7375 7.03744 15.2427 6.54883C14.7479 6.05404 14.0181 5.80664 13.0532 5.80664H10.7061V7.66211H12.9141C13.3037 7.66211 13.6037 7.76416 13.814 7.96826C14.0243 8.16618 14.1294 8.47233 14.1294 8.88672V17.1157C14.1294 17.5239 14.0243 17.8301 13.814 18.0342C13.6037 18.2383 13.3037 18.3403 12.9141 18.3403H3.0708C2.68115 18.3403 2.38118 18.2383 2.1709 18.0342C1.9668 17.8301 1.86475 17.5239 1.86475 17.1157V8.88672C1.86475 8.47233 1.9668 8.16618 2.1709 7.96826C2.38118 7.76416 2.68115 7.66211 3.0708 7.66211H5.30664V5.80664H2.93164C1.97298 5.80664 1.24316 6.05094 0.742188 6.53955C0.247396 7.02816 0 7.75179 0 8.71045V17.3013C0 18.2476 0.247396 18.9681 0.742188 19.4629C1.24316 19.9577 1.97298 20.2051 2.93164 20.2051ZM7.99707 13.1543C8.2321 13.1543 8.43311 13.0708 8.6001 12.9038C8.77327 12.7306 8.85986 12.5327 8.85986 12.3101V3.53369L8.78564 2.23486L9.30518 2.89355L10.4927 4.15527C10.6473 4.32227 10.839 4.40576 11.0679 4.40576C11.2782 4.40576 11.4575 4.33773 11.606 4.20166C11.7544 4.05941 11.8286 3.88314 11.8286 3.67285C11.8286 3.46875 11.7513 3.2863 11.5967 3.12549L8.65576 0.295898C8.54443 0.18457 8.43311 0.107259 8.32178 0.0639648C8.21663 0.0206706 8.1084 -0.000976562 7.99707 -0.000976562C7.87956 -0.000976562 7.76514 0.0206706 7.65381 0.0639648C7.54867 0.107259 7.44043 0.18457 7.3291 0.295898L4.39746 3.12549C4.23665 3.2863 4.15625 3.46875 4.15625 3.67285C4.15625 3.88314 4.23047 4.05941 4.37891 4.20166C4.52734 4.33773 4.70361 4.40576 4.90771 4.40576C5.14274 4.40576 5.33756 4.32227 5.49219 4.15527L6.67969 2.89355L7.19922 2.23486L7.125 3.53369V12.3101C7.125 12.5327 7.2085 12.7306 7.37549 12.9038C7.54867 13.0708 7.75586 13.1543 7.99707 13.1543Z" fill="white"/>
</svg>
