<svg width="17" height="16" viewBox="0 0 17 16" fill="none" xmlns="http://www.w3.org/2000/svg">
<path d="M12.7323 10.3317C12.5252 10.5298 12.43 10.8164 12.4772 11.0974L13.1883 14.9814C13.2483 15.3106 13.1075 15.6437 12.8283 15.834C12.5548 16.0313 12.1908 16.055 11.8924 15.8971L8.34971 14.0735C8.22653 14.0088 8.08974 13.9741 7.94976 13.9701H7.73299C7.6578 13.9812 7.58421 14.0049 7.51702 14.0412L3.97348 15.8734C3.79831 15.9603 3.59993 15.991 3.40556 15.9603C2.93202 15.8718 2.61606 15.4266 2.69365 14.9569L3.40556 11.073C3.45275 10.7896 3.35756 10.5014 3.15039 10.3001L0.261968 7.53714C0.0203992 7.30584 -0.0635898 6.95849 0.0467958 6.64509C0.153982 6.33248 0.427546 6.10434 0.757903 6.05303L4.73338 5.48385C5.03574 5.45307 5.30131 5.2715 5.43729 5.0031L7.18906 1.4586C7.23066 1.37965 7.28425 1.30703 7.34904 1.24545L7.42103 1.19019C7.45863 1.14914 7.50182 1.1152 7.54982 1.08757L7.637 1.05599L7.77299 1.00073H8.10974C8.4105 1.03152 8.67527 1.20914 8.81365 1.47439L10.5886 5.0031C10.7166 5.26124 10.9654 5.44044 11.2525 5.48385L15.228 6.05303C15.564 6.10039 15.8447 6.32932 15.9559 6.64509C16.0607 6.96165 15.9703 7.309 15.7239 7.53714L12.7323 10.3317Z" fill="#FFAB29"/>
</svg>
