<svg width="26" height="24" viewBox="0 0 26 24" fill="none" xmlns="http://www.w3.org/2000/svg">
<path d="M14.9638 4.25V6.67" stroke="#EAB600" stroke-width="1.5" stroke-linecap="round" stroke-linejoin="round"/>
<path d="M14.9638 17.7598V19.7838" stroke="#EAB600" stroke-width="1.5" stroke-linecap="round" stroke-linejoin="round"/>
<path d="M14.9638 14.3243V9.5033" stroke="#EAB600" stroke-width="1.5" stroke-linecap="round" stroke-linejoin="round"/>
<path fill-rule="evenodd" clip-rule="evenodd" d="M20.0103 19.9998C21.9053 19.9998 23.4401 18.5423 23.4401 16.7429V14.1504C22.1862 14.1504 21.1764 13.1915 21.1764 12.0008C21.1764 10.8101 22.1862 9.85015 23.4401 9.85015L23.4391 7.25661C23.4391 5.4572 21.9031 3.99976 20.0093 3.99976H6.07101C4.17714 3.99976 2.64122 5.4572 2.64122 7.25661L2.64014 9.93461C3.89404 9.93461 4.90388 10.8101 4.90388 12.0008C4.90388 13.1915 3.89404 14.1504 2.64014 14.1504V16.7429C2.64014 18.5423 4.17497 19.9998 6.06992 19.9998H20.0103Z" stroke="#EAB600" stroke-width="1.5" stroke-linecap="round" stroke-linejoin="round"/>
</svg>
