<svg width="25" height="24" viewBox="0 0 25 24" fill="none" xmlns="http://www.w3.org/2000/svg">
<path d="M22.7013 3.83613C20.1771 1.18324 16.0709 1.18324 13.5474 3.83613L12.9613 4.45195L12.3755 3.83613C9.85206 1.18288 5.74547 1.18288 3.22201 3.83613C0.749789 6.43516 0.733735 10.5549 3.18478 13.4193C5.4203 16.0309 12.0135 21.6731 12.2932 21.9119C12.4831 22.0742 12.7116 22.1532 12.9388 22.1532C12.9463 22.1532 12.9538 22.1532 12.961 22.1529C13.196 22.1643 13.4327 22.0796 13.6287 21.9119C13.9084 21.6731 20.5023 16.0309 22.7385 13.4189C25.1892 10.5549 25.1731 6.43516 22.7013 3.83613Z" fill="#929292"/>
</svg>
